# xmcd
#
# Track frame offsets:
#  151
#  17354
#  33574
#  53089
#  69865
#  87644
#  102606
#  123629
#  140356
#  160196
#  176706
#  192864
#  213511
#  233883
#
# Disc length: 3353 seconds
#
# Revision: 0
# Processed by: cddbd v1.4PL0 Copyright (c) Steve Scherf et al.
# Submitted via: AltoMP3_Maker 3.0
#
DISCID=c30d170e
DTITLE=LeAnn Rimes - I Need You
DYEAR=1900
DGENRE=
TTITLE0=I Need You
TTITLE1=Can`t Fight The Moonlight
TTITLE2=Written In The Stars
TTITLE3=You Are
TTITLE4=Soon
TTITLE5=But I Do Love You
TTITLE6=One Of These Days
TTITLE7=Love Must Be Telling Me Something
TTITLE8=I Belive In You
TTITLE9=Together Forever Always
TTITLE10=Can`t Fight the Moonlight ( Latino Mix )
TTITLE11=Soon ( Radio Edit )
TTITLE12=I need You ( Radio Edit )
TTITLE13=Extra ???
EXTD=
EXTT0=
EXTT1=
EXTT2=
EXTT3=
EXTT4=
EXTT5=
EXTT6=
EXTT7=
EXTT8=
EXTT9=
EXTT10=
EXTT11=
EXTT12=
EXTT13=
PLAYORDER=
